HIERARCHY
ROOT Hips
{
	OFFSET 0.00000 0.00000 0.00000
	CHANNELS 6 Xposition Yposition Zposition Zrotation Yrotation Xrotation 
	JOINT LHipJoint
	{
		OFFSET 0 0 0
		CHANNELS 3 Zrotation Yrotation Xrotation
		JOINT LeftHip
		{
			OFFSET 1.65674 -1.80282 0.62477
			CHANNELS 3 Zrotation Yrotation Xrotation
			JOINT LeftKnee
			{
				OFFSET 2.59720 -7.13576 0.00000
				CHANNELS 3 Zrotation Yrotation Xrotation
				JOINT LeftAnkle
				{
					OFFSET 2.49236 -6.84770 0.00000
					CHANNELS 3 Zrotation Yrotation Xrotation
					JOINT LeftToe
					{
						OFFSET 0.19704 -0.54136 2.14581
						CHANNELS 3 Zrotation Yrotation Xrotation
						End Site
						{
							OFFSET 0.00000 -0.00000 1.11249
						}
					}
				}
			}
		}
	}
	JOINT RHipJoint
	{
		OFFSET 0 0 0
		CHANNELS 3 Zrotation Yrotation Xrotation
		JOINT RightHip
		{
			OFFSET -1.61070 -1.80282 0.62476
			CHANNELS 3 Zrotation Yrotation Xrotation
			JOINT RightKnee
			{
				OFFSET -2.59502 -7.12977 0.00000
				CHANNELS 3 Zrotation Yrotation Xrotation
				JOINT RightAnkle
				{
					OFFSET -2.46780 -6.78024 0.00000
					CHANNELS 3 Zrotation Yrotation Xrotation
					JOINT RightToe
					{
						OFFSET -0.23024 -0.63258 2.13368
						CHANNELS 3 Zrotation Yrotation Xrotation
						End Site
						{
							OFFSET -0.00000 -0.00000 1.11569
						}
					}
				}
			}
		}
	}
	JOINT lowerback
	{
		OFFSET 0 0 0
		CHANNELS 3 Zrotation Yrotation Xrotation
		JOINT Chest
		{
			OFFSET 0.01961 2.05450 -0.14112
			CHANNELS 3 Zrotation Yrotation Xrotation
			JOINT Chest2
			{
				OFFSET 0.01021 2.06436 -0.05921
				CHANNELS 3 Zrotation Yrotation Xrotation
				JOINT lowerneck
				{
					OFFSET 0 0 0
					CHANNELS 3 Zrotation Yrotation Xrotation
					JOINT Neck
					{
						OFFSET 0.00713 1.56711 0.14968
						CHANNELS 3 Zrotation Yrotation Xrotation
						JOINT Head
						{
							OFFSET 0.03429 1.56041 -0.10006
							CHANNELS 3 Zrotation Yrotation Xrotation
							End Site
							{
								OFFSET 0.01305 1.62560 -0.05265
							}
						}
					}
				}
				JOINT LeftCollar
				{
					OFFSET 0 0 0
					CHANNELS 3 Zrotation Yrotation Xrotation
					JOINT LeftShoulder
					{
						OFFSET 3.54205 0.90436 -0.17364
CHANNELS 3 Zrotation Xrotation Yrotation
						JOINT LeftElbow
						{
OFFSET 0 -4.865130 -0.000000
CHANNELS 3 Zrotation Xrotation Yrotation
							JOINT LeftWrist
							{
OFFSET 0 -3.355540 0.000000
CHANNELS 3 Zrotation Xrotation Yrotation
								JOINT lhand
								{
									OFFSET 0 0 0
CHANNELS 3 Zrotation Xrotation Yrotation
									JOINT LFingers
									{
OFFSET 0 -0.661170 0.000000
CHANNELS 3 Zrotation Xrotation Yrotation
										End Site
										{
OFFSET 0 -0.533060 0.000000
										}
									}
								}
								JOINT LThumb
								{
OFFSET 0 0.000000 0.000000
CHANNELS 3 Zrotation Xrotation Yrotation
									End Site
									{
OFFSET 0 -0.541200 0.541200
									}
								}
							}
						}
					}
				}
				JOINT RightCollar
				{
					OFFSET 0 0 0
					CHANNELS 3 Zrotation Yrotation Xrotation
					JOINT RightShoulder
					{
						OFFSET -3.49802 0.75994 -0.32616
CHANNELS 3 Zrotation Xrotation Yrotation
						JOINT RightElbow
						{
OFFSET 0 -5.026490 0.000000
CHANNELS 3 Zrotation Xrotation Yrotation
							JOINT RightWrist
							{
OFFSET 0 -3.364310 0.000000
CHANNELS 3 Zrotation Xrotation Yrotation
								JOINT rhand
								{
									OFFSET 0 0 0
CHANNELS 3 Zrotation Xrotation Yrotation
									JOINT RFingers
									{
OFFSET 0 -0.730410 0.000000
CHANNELS 3 Zrotation Xrotation Yrotation
										End Site
										{
OFFSET 0 -0.588870 0.000000
										}
									}
								}
								JOINT RThumb
								{
OFFSET 0 0.000000 0.000000
CHANNELS 3 Zrotation Xrotation Yrotation
									End Site
									{
OFFSET 0 -0.597860 0.597860
									}
								}
							}
						}
					}
				}
			}
		}
	}
}
MOTION
Frames: 12
Frame Time: 0.008333333333333333
9.445500 17.861000 -0.500000 -0.919300 -4.115600 -3.465000 0.000000 0.000000 0.000000 -22.247100 -3.344500 0.230800 1.245200 7.075400 19.938800 0.457400 9.399100 -19.470000 0.000500 -0.137200 -0.377000 0.000000 0.000000 0.000000 24.294300 7.105700 1.949400 -0.792100 -5.681200 15.862000 -0.403500 -4.390400 -14.423200 -0.044800 -1.365400 3.754800 1.602900 -1.176600 5.105300 0.880900 -1.499600 3.021500 0.077300 -0.738700 0.226200 -3.954700 -5.343500 -12.727900 3.203900 -6.717500 3.340800 1.283000 -3.245400 3.639900 -0.000000 0.000000 0.000000 -0.543800 3.593000 -29.010300 21.219000 -32.083100 6.165900 30.775600 -14.461100 -18.638900 0.000000 0.000000 0.000000 -7.125000 0.000000 0.000000 2.667500 51.394500 -0.420400 -0.000000 0.000000 0.000000 -3.240800 2.671000 31.796700 -22.658200 -33.713000 -6.947700 -28.019500 -23.931200 -14.919800 0.000000 0.000000 0.000000 7.125000 0.000000 -0.000000 -0.302500 13.184700 -0.225600
9.446627 17.855206 -0.514645 -0.925979 -4.155351 -3.323055 0.000000 0.000000 0.000000 -22.235995 -3.328809 0.114122 1.220979 7.008692 19.741172 0.421190 9.558828 -19.237610 0.001627 -0.253234 -0.695732 0.000000 0.000000 0.000000 24.301703 7.397153 1.558006 -0.844726 -5.861447 16.383027 -0.435526 -4.325624 -14.807754 -0.047616 -1.407484 3.870673 1.583266 -1.115284 5.272189 0.904396 -1.414787 3.028018 0.111579 -0.697098 0.142031 -4.102599 -5.105638 -12.442482 3.444659 -6.395952 2.917541 1.423979 -3.081729 3.440824 0.000000 0.000000 0.000000 -0.484576 3.349345 -29.816342 21.958898 -32.928089 6.564616 30.391931 -14.875588 -18.344228 0.000000 0.000000 0.000000 -7.125000 0.000000 0.000000 2.315616 50.992243 -0.342829 0.000000 0.000000 0.000000 -3.348626 2.586670 32.441164 -23.284720 -34.396973 -7.299262 -28.236440 -24.103239 -14.740921 0.000000 0.000000 0.000000 7.125000 0.000000 0.000000 -0.465688 13.352072 -0.345416
9.449703 17.846792 -0.522953 -0.765087 -4.125636 -3.213528 0.000000 0.000000 0.000000 -22.435543 -3.328778 0.157155 1.175858 6.881964 19.366345 0.377667 9.738847 -18.941238 0.002936 -0.345016 -0.947983 0.000000 0.000000 0.000000 24.093214 7.550406 1.175326 -0.897900 -6.038099 16.895279 -0.466943 -4.202472 -15.134420 -0.052870 -1.482352 4.077095 1.441823 -1.084435 5.305327 0.837770 -1.381099 3.135017 0.120144 -0.680724 0.235487 -4.096028 -4.933342 -12.518652 3.528205 -6.166721 2.764407 1.467950 -2.964125 3.395912 0.000000 0.000000 0.000000 -0.355277 3.055113 -30.563217 22.747971 -33.807688 6.999467 29.846663 -15.781028 -17.557995 0.000000 0.000000 0.000000 -7.125000 0.000000 0.000000 1.873243 50.013908 -0.236558 0.000000 0.000000 0.000000 -3.319349 2.269630 33.036514 -23.815328 -34.966755 -7.601163 -28.455269 -24.585681 -15.113381 0.000000 0.000000 0.000000 7.125000 0.000000 0.000000 -0.575070 12.904063 -0.432571
9.453777 17.843211 -0.526290 -0.410167 -4.027532 -3.174840 0.000000 0.000000 0.000000 -22.857004 -3.384816 0.310712 1.128301 6.746264 18.965894 0.347741 9.864302 -18.737634 0.002399 -0.297530 -0.817524 0.000000 0.000000 0.000000 23.656660 7.586325 0.860855 -0.950422 -6.207554 17.388116 -0.499158 -4.040321 -15.436857 -0.060313 -1.582798 4.354028 1.126363 -1.078009 5.373965 0.697417 -1.387398 3.255636 0.153091 -0.686223 0.325020 -3.990218 -4.777178 -12.744636 3.511675 -5.965508 2.764063 1.454658 -2.861453 3.426005 0.000000 0.000000 0.000000 -0.169027 2.849915 -31.387676 23.602199 -34.735272 7.480968 29.382662 -16.505999 -17.304783 0.000000 0.000000 0.000000 -7.125000 0.000000 0.000000 1.441280 49.648445 -0.163856 0.000000 0.000000 0.000000 -3.281688 1.983115 33.690066 -24.323099 -35.502333 -7.894141 -28.593970 -25.246038 -15.809673 0.000000 0.000000 0.000000 7.125000 0.000000 0.000000 -0.595787 12.106889 -0.457214
9.457722 17.845156 -0.528843 0.053458 -3.879786 -3.181245 0.000000 0.000000 0.000000 -23.391640 -3.500481 0.483923 1.088486 6.630443 18.625104 0.336813 9.914050 -18.666478 0.000787 -0.088336 -0.242708 0.000000 0.000000 0.000000 23.099890 7.560288 0.606270 -0.998838 -6.359714 17.831827 -0.527871 -3.908213 -15.709558 -0.066350 -1.661992 4.572368 0.692692 -1.085696 5.579363 0.533104 -1.415395 3.307037 0.232523 -0.704555 0.269538 -3.917972 -4.602079 -12.839182 3.540645 -5.741246 2.736758 1.466803 -2.747303 3.423751 0.000000 0.000000 0.000000 0.024308 2.803877 -32.278390 24.499402 -35.684256 7.997504 29.098978 -16.985790 -17.497536 0.000000 0.000000 0.000000 -7.125000 0.000000 0.000000 1.131034 49.815462 -0.134548 0.000000 0.000000 0.000000 -3.305840 1.897350 34.408489 -24.869912 -36.068871 -8.213907 -28.669943 -25.836480 -16.371655 0.000000 0.000000 0.000000 7.125000 0.000000 0.000000 -0.586907 11.468451 -0.458405
9.460396 17.847542 -0.536935 0.448834 -3.716918 -3.151761 0.000000 0.000000 0.000000 -23.833761 -3.647810 0.551600 1.059540 6.544619 18.373244 0.336444 9.915183 -18.663154 0.001084 0.210697 0.578798 0.000000 0.000000 0.000000 22.627516 7.554037 0.344002 -1.037773 -6.479025 18.180658 -0.544109 -3.910649 -15.911566 -0.064845 -1.643234 4.520814 0.288870 -1.093650 5.948943 0.419267 -1.441086 3.222049 0.352223 -0.721947 -0.016295 -4.058654 -4.388973 -12.501703 3.812066 -5.459563 2.469733 1.610905 -2.602273 3.270914 0.000000 0.000000 0.000000 0.149201 2.907596 -33.099291 25.382591 -36.592153 8.517044 28.962508 -17.666552 -17.129023 0.000000 0.000000 0.000000 -7.125000 0.000000 0.000000 1.049144 49.381578 -0.113343 0.000000 0.000000 0.000000 -3.403955 2.076542 35.108497 -25.502041 -36.712473 -8.588385 -28.783218 -26.022447 -16.177185 0.000000 0.000000 0.000000 7.125000 0.000000 0.000000 -0.682740 11.666792 -0.530444
9.463695 17.848990 -0.551902 0.684121 -3.597021 -2.992033 0.000000 0.000000 0.000000 -24.094073 -3.827172 0.345040 1.060908 6.548723 18.385072 0.334513 9.911160 -18.637485 0.000520 0.141736 0.389378 0.000000 0.000000 0.000000 22.318199 7.586305 -0.010537 -1.057487 -6.538410 18.354789 -0.540971 -4.005278 -15.934499 -0.056074 -1.527361 4.201117 0.064044 -1.085040 6.181091 0.349260 -1.440603 3.206519 0.411527 -0.723556 -0.157274 -4.108705 -4.188368 -12.360643 3.914179 -5.189756 2.198879 1.676486 -2.467088 3.144017 0.000000 0.000000 0.000000 0.266281 2.656135 -33.811670 26.122489 -37.327304 8.962672 28.842290 -18.473962 -16.417127 0.000000 0.000000 0.000000 -7.125000 0.000000 0.000000 1.029992 48.568293 -0.090732 0.000000 0.000000 0.000000 -3.443706 2.016031 35.631696 -26.157610 -37.362248 -8.983802 -28.938761 -25.576496 -15.157582 0.000000 0.000000 0.000000 7.125000 0.000000 0.000000 -0.894128 12.781990 -0.673113
9.465792 17.854931 -0.573955 0.548443 -3.588990 -2.673682 0.000000 0.000000 0.000000 -23.908760 -3.961990 -0.132198 1.078473 6.600787 18.537935 0.332898 9.859429 -18.563413 0.000463 -0.042316 -0.116277 0.000000 0.000000 0.000000 22.437171 7.870205 -0.440624 -1.070558 -6.577484 18.469508 -0.526570 -4.197221 -15.886315 -0.050720 -1.452805 3.995626 0.252954 -1.043845 6.309600 0.349928 -1.374570 3.208768 0.304869 -0.688468 -0.230868 -3.814808 -4.029902 -12.545815 3.584587 -4.994863 2.127143 1.525233 -2.378724 3.122594 0.000000 0.000000 0.000000 0.542680 2.286735 -34.727341 26.904906 -38.084536 9.441898 28.364711 -19.104970 -16.486642 0.000000 0.000000 0.000000 -7.125000 0.000000 0.000000 0.551612 48.568498 -0.047367 0.000000 0.000000 0.000000 -3.405632 1.782786 36.066378 -26.768255 -37.955141 -9.357137 -28.953145 -25.245005 -14.693825 0.000000 0.000000 0.000000 7.125000 0.000000 0.000000 -0.951828 13.298761 -0.707396
9.465550 17.858594 -0.600821 0.181737 -3.606461 -2.269838 0.000000 0.000000 0.000000 -23.435779 -4.095594 -0.766015 1.103371 6.674021 18.753226 0.345453 9.708654 -18.546388 0.001462 0.068738 0.188875 0.000000 0.000000 0.000000 22.827114 8.314301 -0.918491 -1.084273 -6.618125 18.588857 -0.508321 -4.476713 -15.854057 -0.045070 -1.368482 3.763261 0.668290 -0.993750 6.432032 0.401865 -1.282807 3.189212 0.122096 -0.638769 -0.326783 -3.551833 -3.894129 -12.700018 3.332793 -4.830826 2.001834 1.403887 -2.303304 3.082817 0.000000 0.000000 0.000000 0.871169 2.003555 -35.654085 27.822792 -38.946096 10.014585 27.724184 -19.607906 -16.846026 0.000000 0.000000 0.000000 -7.125000 0.000000 0.000000 -0.132096 48.862873 0.015109 0.000000 0.000000 0.000000 -3.369590 1.531379 36.556172 -27.379507 -38.536293 -9.735625 -28.778045 -25.489790 -15.202688 0.000000 0.000000 0.000000 7.125000 0.000000 0.000000 -0.781955 12.757549 -0.586648
9.463595 17.858180 -0.627836 -0.156643 -3.584694 -1.877730 0.000000 0.000000 0.000000 -22.982052 -4.265528 -1.415415 1.131553 6.755950 18.994418 0.372957 9.486349 -18.625687 0.008195 0.505367 1.388851 0.000000 0.000000 0.000000 23.190669 8.762021 -1.376321 -1.098979 -6.661472 18.716163 -0.494277 -4.764765 -15.883112 -0.037640 -1.249197 3.434702 1.035331 -0.957151 6.546456 0.447075 -1.211700 3.204804 -0.039901 -0.599702 -0.380615 -3.478739 -3.739424 -12.729515 3.378271 -4.630701 1.679275 1.420268 -2.201923 2.968190 0.000000 0.000000 0.000000 1.174143 1.767109 -36.469490 28.857825 -39.888962 10.671349 27.231430 -19.923248 -17.196031 0.000000 0.000000 0.000000 -7.125000 0.000000 0.000000 -0.672820 49.169067 0.069266 0.000000 0.000000 0.000000 -3.384773 1.242363 37.161269 -28.004038 -39.118098 -10.126915 -28.509626 -26.072043 -16.106522 0.000000 0.000000 0.000000 7.125000 0.000000 0.000000 -0.509220 11.789545 -0.394271
9.461976 17.854945 -0.649314 -0.159907 -3.482574 -1.600057 0.000000 0.000000 0.000000 -22.918000 -4.494776 -1.932949 1.161770 6.842477 19.249589 0.406224 9.275015 -18.784430 0.025503 1.031452 2.835247 0.000000 0.000000 0.000000 23.171670 9.025008 -1.733139 -1.110790 -6.696041 18.817782 -0.491578 -4.945342 -15.980484 -0.028813 -1.095245 3.011031 1.059284 -0.952945 6.595137 0.406464 -1.205940 3.360400 -0.096222 -0.595331 -0.248616 -3.567703 -3.516128 -12.734766 3.692950 -4.325740 1.134224 1.562896 -2.040477 2.783768 0.000000 0.000000 0.000000 1.408493 1.399500 -37.115981 29.920812 -40.824321 11.358223 27.233242 -19.967044 -17.326309 0.000000 0.000000 0.000000 -7.125000 0.000000 0.000000 -0.694016 49.312399 0.074271 0.000000 0.000000 0.000000 -3.466810 0.800790 37.873691 -28.631853 -39.691000 -10.524886 -28.313458 -26.357039 -16.327048 0.000000 0.000000 0.000000 7.125000 0.000000 0.000000 -0.356023 11.575655 -0.277256
9.466723 17.848829 -0.666776 0.082703 -3.401222 -1.394462 0.000000 0.000000 0.000000 -23.176220 -4.661344 -2.352104 1.193957 6.933325 19.517948 0.415236 9.213296 -18.822813 0.027273 1.066777 2.932451 0.000000 0.000000 0.000000 22.835477 9.061299 -2.069493 -1.115779 -6.710526 18.860510 -0.489486 -4.994266 -15.990543 -0.025594 -1.032319 2.837704 0.947112 -0.964050 6.578561 0.242311 -1.230724 3.618620 -0.203324 -0.606194 0.024812 -3.065104 -3.249780 -13.260943 3.344365 -4.013124 1.007246 1.373476 -1.890325 2.800424 0.000000 0.000000 0.000000 1.769872 0.886520 -37.821439 30.943554 -41.685404 12.033426 27.602346 -20.141658 -16.699870 0.000000 0.000000 0.000000 -7.125000 0.000000 0.000000 -0.227788 48.682339 0.022128 0.000000 0.000000 0.000000 -3.435991 0.213620 38.486370 -29.218059 -40.212590 -10.901634 -28.023534 -26.355993 -16.580923 0.000000 0.000000 0.000000 7.125000 0.000000 0.000000 -0.137795 11.340771 -0.107791
